<svg width="19" height="19" viewBox="0 0 19 19" fill="none" xmlns="http://www.w3.org/2000/svg">
<path d="M15.4375 2.96875H3.5625C3.24756 2.96875 2.94551 3.09386 2.72281 3.31656C2.50011 3.53926 2.375 3.84131 2.375 4.15625V8.3125C2.375 12.2253 4.26906 14.5966 5.85809 15.8969C7.56957 17.2967 9.27215 17.7724 9.34637 17.7917C9.44842 17.8195 9.55603 17.8195 9.65809 17.7917C9.73231 17.7724 11.4327 17.2967 13.1464 15.8969C14.7309 14.5966 16.625 12.2253 16.625 8.3125V4.15625C16.625 3.84131 16.4999 3.53926 16.2772 3.31656C16.0545 3.09386 15.7524 2.96875 15.4375 2.96875ZM15.4375 8.3125C15.4375 11.0638 14.4237 13.297 12.4242 14.9491C11.5538 15.6659 10.564 16.2236 9.5 16.5968C8.44996 16.2301 7.47231 15.6823 6.61141 14.9781C4.5882 13.323 3.5625 11.0809 3.5625 8.3125V4.15625H15.4375V8.3125Z" fill="black"/>
</svg>
