<svg width="17" height="17" viewBox="0 0 17 17" fill="none" xmlns="http://www.w3.org/2000/svg">
<path d="M15.3353 14.0781C14.324 12.3296 12.7654 11.0759 10.9465 10.4815C11.8462 9.94594 12.5452 9.12982 12.9362 8.15851C13.3272 7.1872 13.3885 6.1144 13.1108 5.10486C12.833 4.09532 12.2316 3.20487 11.3988 2.57025C10.566 1.93562 9.54785 1.59192 8.50081 1.59192C7.45376 1.59192 6.43566 1.93562 5.60285 2.57025C4.77005 3.20487 4.16859 4.09532 3.89084 5.10486C3.6131 6.1144 3.67442 7.1872 4.06539 8.15851C4.45636 9.12982 5.15537 9.94594 6.05506 10.4815C4.2362 11.0752 2.67764 12.329 1.66627 14.0781C1.62919 14.1386 1.60458 14.2059 1.59392 14.276C1.58326 14.3461 1.58676 14.4177 1.6042 14.4865C1.62164 14.5552 1.65268 14.6198 1.69549 14.6764C1.73829 14.733 1.79199 14.7804 1.85342 14.8159C1.91485 14.8513 1.98277 14.8742 2.05316 14.883C2.12356 14.8918 2.195 14.8864 2.26328 14.8672C2.33156 14.8479 2.3953 14.8152 2.45072 14.7709C2.50615 14.7266 2.55215 14.6717 2.586 14.6094C3.83709 12.4472 6.04842 11.1562 8.50081 11.1562C10.9532 11.1562 13.1645 12.4472 14.4156 14.6094C14.4495 14.6717 14.4955 14.7266 14.5509 14.7709C14.6063 14.8152 14.67 14.8479 14.7383 14.8672C14.8066 14.8864 14.8781 14.8918 14.9484 14.883C15.0188 14.8742 15.0868 14.8513 15.1482 14.8159C15.2096 14.7804 15.2633 14.733 15.3061 14.6764C15.3489 14.6198 15.38 14.5552 15.3974 14.4865C15.4149 14.4177 15.4183 14.3461 15.4077 14.276C15.397 14.2059 15.3724 14.1386 15.3353 14.0781ZM4.78206 6.37498C4.78206 5.63948 5.00016 4.92049 5.40878 4.30895C5.8174 3.6974 6.39819 3.22076 7.0777 2.9393C7.75721 2.65784 8.50493 2.58419 9.2263 2.72768C9.94767 2.87117 10.6103 3.22535 11.1304 3.74542C11.6504 4.2655 12.0046 4.92812 12.1481 5.64948C12.2916 6.37085 12.2179 7.11857 11.9365 7.79808C11.655 8.47759 11.1784 9.05838 10.5668 9.467C9.95529 9.87562 9.2363 10.0937 8.50081 10.0937C7.51486 10.0927 6.56959 9.70054 5.87242 9.00336C5.17524 8.30619 4.78311 7.36093 4.78206 6.37498Z" fill="black"/>
</svg>
