<svg width="30" height="23" viewBox="0 0 30 23" fill="none" xmlns="http://www.w3.org/2000/svg">
<g clip-path="url(#clip0_347_145)">
<path d="M3 18.2085C3.00152 19.4789 3.50685 20.6968 4.40513 21.595C5.30341 22.4933 6.5213 22.9986 7.79167 23.0002H21.2083C22.4787 22.9986 23.6966 22.4933 24.5949 21.595C25.4932 20.6968 25.9985 19.4789 26 18.2085V9.5835H3V18.2085ZM19.2917 13.896C19.576 13.896 19.8539 13.9803 20.0903 14.1383C20.3267 14.2962 20.5109 14.5207 20.6197 14.7834C20.7285 15.0461 20.757 15.3351 20.7015 15.6139C20.6461 15.8928 20.5092 16.1489 20.3081 16.35C20.1071 16.551 19.851 16.6879 19.5721 16.7434C19.2933 16.7988 19.0042 16.7704 18.7416 16.6616C18.4789 16.5528 18.2544 16.3685 18.0964 16.1321C17.9385 15.8957 17.8542 15.6178 17.8542 15.3335C17.8542 14.9522 18.0056 14.5866 18.2752 14.317C18.5448 14.0474 18.9104 13.896 19.2917 13.896ZM14.5 13.896C14.7843 13.896 15.0622 13.9803 15.2986 14.1383C15.535 14.2962 15.7193 14.5207 15.8281 14.7834C15.9369 15.0461 15.9653 15.3351 15.9099 15.6139C15.8544 15.8928 15.7175 16.1489 15.5165 16.35C15.3154 16.551 15.0593 16.6879 14.7804 16.7434C14.5016 16.7988 14.2126 16.7704 13.9499 16.6616C13.6872 16.5528 13.4627 16.3685 13.3048 16.1321C13.1468 15.8957 13.0625 15.6178 13.0625 15.3335C13.0625 14.9522 13.214 14.5866 13.4835 14.317C13.7531 14.0474 14.1188 13.896 14.5 13.896ZM9.70833 13.896C9.99264 13.896 10.2706 13.9803 10.507 14.1383C10.7434 14.2962 10.9276 14.5207 11.0364 14.7834C11.1452 15.0461 11.1737 15.3351 11.1182 15.6139C11.0627 15.8928 10.9258 16.1489 10.7248 16.35C10.5238 16.551 10.2676 16.6879 9.98878 16.7434C9.70993 16.7988 9.42089 16.7704 9.15823 16.6616C8.89556 16.5528 8.67105 16.3685 8.5131 16.1321C8.35514 15.8957 8.27083 15.6178 8.27083 15.3335C8.27083 14.9522 8.42228 14.5866 8.69187 14.317C8.96145 14.0474 9.32708 13.896 9.70833 13.896Z" fill="black"/>
<path d="M21.2083 1.91667H20.25V0.958333C20.25 0.704168 20.149 0.460412 19.9693 0.280689C19.7896 0.100967 19.5458 0 19.2917 0C19.0375 0 18.7937 0.100967 18.614 0.280689C18.4343 0.460412 18.3333 0.704168 18.3333 0.958333V1.91667H10.6667V0.958333C10.6667 0.704168 10.5657 0.460412 10.386 0.280689C10.2063 0.100967 9.9625 0 9.70833 0C9.45417 0 9.21041 0.100967 9.03069 0.280689C8.85097 0.460412 8.75 0.704168 8.75 0.958333V1.91667H7.79167C6.5213 1.91819 5.30341 2.42351 4.40513 3.32179C3.50685 4.22008 3.00152 5.43797 3 6.70833L3 7.66667H26V6.70833C25.9985 5.43797 25.4932 4.22008 24.5949 3.32179C23.6966 2.42351 22.4787 1.91819 21.2083 1.91667Z" fill="black"/>
</g>
<defs>
<clipPath id="clip0_347_145">
<rect width="30" height="23" fill="white"/>
</clipPath>
</defs>
</svg>
