<svg width="30" height="23" viewBox="0 0 30 23" fill="none" xmlns="http://www.w3.org/2000/svg">
<path d="M23.75 0H6.25C2.79875 0 0 2.86094 0 6.38889V16.6111C0 20.1391 2.79875 23 6.25 23H23.75C27.2012 23 30 20.1391 30 16.6111V6.38889C30 2.86094 27.2012 0 23.75 0ZM8.5025 18.3476C6.11625 17.7739 4.2475 15.7179 3.84125 13.2467C3.255 9.68044 5.5625 6.53967 8.75 5.87778V11.6086C8.75 12.2858 9.01375 12.9362 9.4825 13.4154L13.4438 17.4647C12.0775 18.3898 10.34 18.7884 8.5025 18.3476ZM15.21 15.6579L11.615 11.983C11.38 11.7428 11.2487 11.4182 11.2487 11.0796V5.87906C14.1012 6.47067 16.2487 9.04794 16.2487 12.1389C16.2487 13.4409 15.8637 14.6484 15.2087 15.6579H15.21ZM25 17.8889H21.25C20.56 17.8889 20 17.3164 20 16.6111C20 15.9058 20.56 15.3333 21.25 15.3333H25C25.69 15.3333 26.25 15.9058 26.25 16.6111C26.25 17.3164 25.69 17.8889 25 17.8889ZM25 12.7778H21.25C20.56 12.7778 20 12.2053 20 11.5C20 10.7947 20.56 10.2222 21.25 10.2222H25C25.69 10.2222 26.25 10.7947 26.25 11.5C26.25 12.2053 25.69 12.7778 25 12.7778ZM25 7.66667H21.25C20.56 7.66667 20 7.09422 20 6.38889C20 5.68356 20.56 5.11111 21.25 5.11111H25C25.69 5.11111 26.25 5.68356 26.25 6.38889C26.25 7.09422 25.69 7.66667 25 7.66667Z" fill="#030607"/>
</svg>
