<svg width="36" height="36" viewBox="0 0 36 36" fill="none" xmlns="http://www.w3.org/2000/svg">
<g clip-path="url(#clip0_144_1492)">
<rect opacity="0.4" width="36" height="36" rx="6" fill="#AACDEC"/>
<path d="M26 10.5H9.50003C9.1022 10.5 8.72067 10.658 8.43937 10.9393C8.15806 11.2206 8.00003 11.6022 8.00003 12V27C7.9983 27.286 8.07921 27.5665 8.23305 27.8076C8.38689 28.0488 8.6071 28.2404 8.86721 28.3594C9.06543 28.4517 9.28138 28.4997 9.50003 28.5C9.85216 28.4992 10.1926 28.3736 10.461 28.1456L10.4694 28.1391L13.5313 25.5H26C26.3979 25.5 26.7794 25.342 27.0607 25.0607C27.342 24.7794 27.5 24.3978 27.5 24V12C27.5 11.6022 27.342 11.2206 27.0607 10.9393C26.7794 10.658 26.3979 10.5 26 10.5ZM26 24H13.25C13.0699 24.0001 12.8959 24.065 12.7597 24.1828L9.50003 27V12H26V24Z" fill="#4277BB"/>
</g>
<defs>
<clipPath id="clip0_144_1492">
<rect width="36" height="36" rx="6" fill="white"/>
</clipPath>
</defs>
</svg>
