<svg width="36" height="36" viewBox="0 0 36 36" fill="none" xmlns="http://www.w3.org/2000/svg">
<g clip-path="url(#clip0_144_1456)">
<rect opacity="0.4" width="36" height="36" rx="6" fill="#AACDEC"/>
<path d="M26 12.75H18.0603L15.5 10.1897C15.3612 10.0498 15.196 9.93889 15.014 9.86341C14.832 9.78792 14.6367 9.74938 14.4397 9.75001H9.5C9.10218 9.75001 8.72064 9.90804 8.43934 10.1893C8.15804 10.4707 8 10.8522 8 11.25V24.8081C8.0005 25.1904 8.15257 25.5568 8.42286 25.8271C8.69316 26.0974 9.05962 26.2495 9.44188 26.25H26.0834C26.459 26.2495 26.819 26.1001 27.0846 25.8346C27.3501 25.569 27.4995 25.209 27.5 24.8334V14.25C27.5 13.8522 27.342 13.4707 27.0607 13.1893C26.7794 12.908 26.3978 12.75 26 12.75ZM9.5 11.25H14.4397L15.9397 12.75H9.5V11.25ZM26 24.75H9.5V14.25H26V24.75Z" fill="#4277BB"/>
</g>
<defs>
<clipPath id="clip0_144_1456">
<rect width="36" height="36" rx="6" fill="white"/>
</clipPath>
</defs>
</svg>
