<svg width="36" height="36" viewBox="0 0 36 36" fill="none" xmlns="http://www.w3.org/2000/svg">
<g clip-path="url(#clip0_144_1473)">
<rect opacity="0.4" width="36" height="36" rx="6" fill="#AACDEC"/>
<path d="M26.0306 13.7194L20.7806 8.46938C20.7109 8.39975 20.6282 8.34454 20.5371 8.3069C20.4461 8.26926 20.3485 8.24992 20.25 8.25H11.25C10.8522 8.25 10.4706 8.40804 10.1893 8.68934C9.90804 8.97064 9.75 9.35218 9.75 9.75V26.25C9.75 26.6478 9.90804 27.0294 10.1893 27.3107C10.4706 27.592 10.8522 27.75 11.25 27.75H24.75C25.1478 27.75 25.5294 27.592 25.8107 27.3107C26.092 27.0294 26.25 26.6478 26.25 26.25V14.25C26.2501 14.1515 26.2307 14.0539 26.1931 13.9629C26.1555 13.8718 26.1003 13.7891 26.0306 13.7194ZM21 10.8103L23.6897 13.5H21V10.8103ZM24.75 26.25H11.25V9.75H19.5V14.25C19.5 14.4489 19.579 14.6397 19.7197 14.7803C19.8603 14.921 20.0511 15 20.25 15H24.75V26.25Z" fill="#4277BB"/>
</g>
<defs>
<clipPath id="clip0_144_1473">
<rect width="36" height="36" rx="6" fill="white"/>
</clipPath>
</defs>
</svg>
