<svg width="36" height="36" viewBox="0 0 36 36" fill="none" xmlns="http://www.w3.org/2000/svg">
<g clip-path="url(#clip0_144_1614)">
<rect opacity="0.4" width="36" height="36" rx="6" fill="#AACDEC"/>
<path d="M18 22.5C19.1931 22.4988 20.337 22.0243 21.1806 21.1806C22.0243 20.337 22.4988 19.1931 22.5 18V12C22.5 10.8065 22.0259 9.66193 21.182 8.81802C20.3381 7.97411 19.1935 7.5 18 7.5C16.8065 7.5 15.6619 7.97411 14.818 8.81802C13.9741 9.66193 13.5 10.8065 13.5 12V18C13.5012 19.1931 13.9757 20.337 14.8194 21.1806C15.663 22.0243 16.8069 22.4988 18 22.5ZM15 12C15 11.2044 15.3161 10.4413 15.8787 9.87868C16.4413 9.31607 17.2044 9 18 9C18.7956 9 19.5587 9.31607 20.1213 9.87868C20.6839 10.4413 21 11.2044 21 12V18C21 18.7956 20.6839 19.5587 20.1213 20.1213C19.5587 20.6839 18.7956 21 18 21C17.2044 21 16.4413 20.6839 15.8787 20.1213C15.3161 19.5587 15 18.7956 15 18V12ZM18.75 25.4625V28.5C18.75 28.6989 18.671 28.8897 18.5303 29.0303C18.3897 29.171 18.1989 29.25 18 29.25C17.8011 29.25 17.6103 29.171 17.4697 29.0303C17.329 28.8897 17.25 28.6989 17.25 28.5V25.4625C15.4009 25.2743 13.6873 24.4072 12.4405 23.0288C11.1937 21.6504 10.5023 19.8586 10.5 18C10.5 17.8011 10.579 17.6103 10.7197 17.4697C10.8603 17.329 11.0511 17.25 11.25 17.25C11.4489 17.25 11.6397 17.329 11.7803 17.4697C11.921 17.6103 12 17.8011 12 18C12 19.5913 12.6321 21.1174 13.7574 22.2426C14.8826 23.3679 16.4087 24 18 24C19.5913 24 21.1174 23.3679 22.2426 22.2426C23.3679 21.1174 24 19.5913 24 18C24 17.8011 24.079 17.6103 24.2197 17.4697C24.3603 17.329 24.5511 17.25 24.75 17.25C24.9489 17.25 25.1397 17.329 25.2803 17.4697C25.421 17.6103 25.5 17.8011 25.5 18C25.4977 19.8586 24.8063 21.6504 23.5595 23.0288C22.3127 24.4072 20.5991 25.2743 18.75 25.4625Z" fill="#4277BB"/>
</g>
<defs>
<clipPath id="clip0_144_1614">
<rect width="36" height="36" rx="6" fill="white"/>
</clipPath>
</defs>
</svg>
