<svg width="36" height="36" viewBox="0 0 36 36" fill="none" xmlns="http://www.w3.org/2000/svg">
<g clip-path="url(#clip0_144_1513)">
<rect opacity="0.4" width="36" height="36" rx="6" fill="#AACDEC"/>
<path d="M14.25 17.25C14.25 17.0511 14.329 16.8603 14.4697 16.7197C14.6103 16.579 14.8011 16.5 15 16.5H17.25V14.25C17.25 14.0511 17.329 13.8603 17.4697 13.7197C17.6103 13.579 17.8011 13.5 18 13.5C18.1989 13.5 18.3897 13.579 18.5303 13.7197C18.671 13.8603 18.75 14.0511 18.75 14.25V16.5H21C21.1989 16.5 21.3897 16.579 21.5303 16.7197C21.671 16.8603 21.75 17.0511 21.75 17.25C21.75 17.4489 21.671 17.6397 21.5303 17.7803C21.3897 17.921 21.1989 18 21 18H18.75V20.25C18.75 20.4489 18.671 20.6397 18.5303 20.7803C18.3897 20.921 18.1989 21 18 21C17.8011 21 17.6103 20.921 17.4697 20.7803C17.329 20.6397 17.25 20.4489 17.25 20.25V18H15C14.8011 18 14.6103 17.921 14.4697 17.7803C14.329 17.6397 14.25 17.4489 14.25 17.25ZM27 10.5V15.75C27 20.6925 24.6075 23.6878 22.6003 25.3303C20.4384 27.0984 18.2878 27.6994 18.1941 27.7238C18.0652 27.7588 17.9292 27.7588 17.8003 27.7238C17.7066 27.6994 15.5588 27.0984 13.3941 25.3303C11.3925 23.6878 9 20.6925 9 15.75V10.5C9 10.1022 9.15804 9.72064 9.43934 9.43934C9.72064 9.15804 10.1022 9 10.5 9H25.5C25.8978 9 26.2794 9.15804 26.5607 9.43934C26.842 9.72064 27 10.1022 27 10.5ZM25.5 10.5H10.5V15.75C10.5 19.2469 11.7956 22.0791 14.3503 24.1697C15.438 25.0593 16.6733 25.7513 18 26.2144C19.3443 25.7431 20.595 25.0386 21.6947 24.1331C24.2194 22.0462 25.5 19.2253 25.5 15.75V10.5Z" fill="#4277BB"/>
</g>
<defs>
<clipPath id="clip0_144_1513">
<rect width="36" height="36" rx="6" fill="white"/>
</clipPath>
</defs>
</svg>
