<svg width="36" height="36" viewBox="0 0 36 36" fill="none" xmlns="http://www.w3.org/2000/svg">
<g clip-path="url(#clip0_144_1435)">
<rect opacity="0.4" width="36" height="36" rx="6" fill="#AACDEC"/>
<path d="M25.5 9H23.25V8.25C23.25 8.05109 23.171 7.86032 23.0303 7.71967C22.8897 7.57902 22.6989 7.5 22.5 7.5C22.3011 7.5 22.1103 7.57902 21.9697 7.71967C21.829 7.86032 21.75 8.05109 21.75 8.25V9H14.25V8.25C14.25 8.05109 14.171 7.86032 14.0303 7.71967C13.8897 7.57902 13.6989 7.5 13.5 7.5C13.3011 7.5 13.1103 7.57902 12.9697 7.71967C12.829 7.86032 12.75 8.05109 12.75 8.25V9H10.5C10.1022 9 9.72064 9.15804 9.43934 9.43934C9.15804 9.72064 9 10.1022 9 10.5V25.5C9 25.8978 9.15804 26.2794 9.43934 26.5607C9.72064 26.842 10.1022 27 10.5 27H25.5C25.8978 27 26.2794 26.842 26.5607 26.5607C26.842 26.2794 27 25.8978 27 25.5V10.5C27 10.1022 26.842 9.72064 26.5607 9.43934C26.2794 9.15804 25.8978 9 25.5 9ZM12.75 10.5V11.25C12.75 11.4489 12.829 11.6397 12.9697 11.7803C13.1103 11.921 13.3011 12 13.5 12C13.6989 12 13.8897 11.921 14.0303 11.7803C14.171 11.6397 14.25 11.4489 14.25 11.25V10.5H21.75V11.25C21.75 11.4489 21.829 11.6397 21.9697 11.7803C22.1103 11.921 22.3011 12 22.5 12C22.6989 12 22.8897 11.921 23.0303 11.7803C23.171 11.6397 23.25 11.4489 23.25 11.25V10.5H25.5V13.5H10.5V10.5H12.75ZM25.5 25.5H10.5V15H25.5V25.5Z" fill="#4277BB"/>
</g>
<defs>
<clipPath id="clip0_144_1435">
<rect width="36" height="36" rx="6" fill="white"/>
</clipPath>
</defs>
</svg>
