<svg width="36" height="36" viewBox="0 0 36 36" fill="none" xmlns="http://www.w3.org/2000/svg">
<g clip-path="url(#clip0_144_1593)">
<rect opacity="0.4" width="36" height="36" rx="6" fill="#AACDEC"/>
<path d="M27 10.5H9C8.80109 10.5 8.61032 10.579 8.46967 10.7197C8.32902 10.8603 8.25 11.0511 8.25 11.25V24C8.25 24.3978 8.40804 24.7794 8.68934 25.0607C8.97064 25.342 9.35218 25.5 9.75 25.5H26.25C26.6478 25.5 27.0294 25.342 27.3107 25.0607C27.592 24.7794 27.75 24.3978 27.75 24V11.25C27.75 11.0511 27.671 10.8603 27.5303 10.7197C27.3897 10.579 27.1989 10.5 27 10.5ZM25.0716 12L18 18.4828L10.9284 12H25.0716ZM26.25 24H9.75V12.9553L17.4928 20.0531C17.6312 20.1801 17.8122 20.2506 18 20.2506C18.1878 20.2506 18.3688 20.1801 18.5072 20.0531L26.25 12.9553V24Z" fill="#4277BB"/>
</g>
<defs>
<clipPath id="clip0_144_1593">
<rect width="36" height="36" rx="6" fill="white"/>
</clipPath>
</defs>
</svg>
