<svg width="36" height="36" viewBox="0 0 36 36" fill="none" xmlns="http://www.w3.org/2000/svg">
<g clip-path="url(#clip0_144_1536)">
<rect opacity="0.4" width="36" height="36" rx="6" fill="#AACDEC"/>
<path d="M28.9688 16.3725C28.8295 16.1795 28.6464 16.0224 28.4345 15.9142C28.2226 15.8059 27.988 15.7497 27.75 15.75H26.25V14.25C26.25 13.8522 26.092 13.4706 25.8107 13.1893C25.5294 12.908 25.1478 12.75 24.75 12.75H18.2503L15.6506 10.8C15.3905 10.6061 15.075 10.5009 14.7506 10.5H9.75C9.35218 10.5 8.97064 10.658 8.68934 10.9393C8.40804 11.2206 8.25 11.6022 8.25 12V25.5C8.25 25.6989 8.32902 25.8897 8.46967 26.0303C8.61032 26.171 8.80109 26.25 9 26.25H25.7906C25.948 26.25 26.1015 26.2005 26.2292 26.1085C26.3569 26.0164 26.4524 25.8865 26.5022 25.7372L29.1731 17.7244C29.2482 17.4989 29.2689 17.2589 29.2334 17.0239C29.1978 16.7889 29.1072 16.5657 28.9688 16.3725ZM14.7506 12L17.55 14.1C17.6798 14.1974 17.8377 14.25 18 14.25H24.75V15.75H12.5409C12.2261 15.75 11.9192 15.849 11.6638 16.0331C11.4084 16.2172 11.2174 16.4769 11.1178 16.7756L9.75 20.8781V12H14.7506ZM25.2506 24.75H10.0406L12.5409 17.25H27.75L25.2506 24.75Z" fill="#4277BB"/>
</g>
<defs>
<clipPath id="clip0_144_1536">
<rect width="36" height="36" rx="6" fill="white"/>
</clipPath>
</defs>
</svg>
