<svg width="36" height="36" viewBox="0 0 36 36" fill="none" xmlns="http://www.w3.org/2000/svg">
<g clip-path="url(#clip0_144_1553)">
<rect opacity="0.4" width="36" height="36" rx="6" fill="#AACDEC"/>
<path d="M16.9921 20.8051C17.9973 20.1359 18.7605 19.161 19.1687 18.0245C19.577 16.888 19.6087 15.6504 19.2591 14.4945C18.9095 13.3386 18.1973 12.3259 17.2276 11.6062C16.258 10.8864 15.0825 10.4978 13.8749 10.4978C12.6674 10.4978 11.4918 10.8864 10.5222 11.6062C9.55258 12.3259 8.84032 13.3386 8.49076 14.4945C8.1412 15.6504 8.17288 16.888 8.58114 18.0245C8.9894 19.161 9.75255 20.1359 10.7577 20.8051C8.93945 21.4752 7.38659 22.7154 6.33086 24.3404C6.27538 24.4229 6.23684 24.5155 6.21748 24.613C6.19813 24.7105 6.19834 24.8109 6.21812 24.9083C6.23789 25.0057 6.27683 25.0982 6.33268 25.1804C6.38852 25.2627 6.46014 25.333 6.5434 25.3873C6.62665 25.4416 6.71986 25.4788 6.81762 25.4967C6.91538 25.5147 7.01573 25.513 7.11285 25.4919C7.20996 25.4707 7.3019 25.4304 7.38332 25.3734C7.46473 25.3164 7.53401 25.2438 7.58711 25.1598C8.2681 24.1124 9.19995 23.2517 10.298 22.6559C11.3961 22.0601 12.6256 21.748 13.8749 21.748C15.1242 21.748 16.3538 22.0601 17.4518 22.6559C18.5499 23.2517 19.4817 24.1124 20.1627 25.1598C20.2727 25.3233 20.4427 25.4369 20.6358 25.4761C20.8289 25.5153 21.0297 25.4769 21.1947 25.3693C21.3598 25.2616 21.4758 25.0934 21.5178 24.9008C21.5598 24.7083 21.5243 24.507 21.419 24.3404C20.3633 22.7154 18.8104 21.4752 16.9921 20.8051ZM9.74992 16.1251C9.74992 15.3092 9.99185 14.5117 10.4451 13.8334C10.8984 13.155 11.5426 12.6263 12.2964 12.3141C13.0501 12.0019 13.8795 11.9202 14.6797 12.0793C15.4798 12.2385 16.2148 12.6314 16.7917 13.2083C17.3686 13.7852 17.7615 14.5202 17.9207 15.3203C18.0798 16.1205 17.9981 16.9499 17.6859 17.7037C17.3737 18.4574 16.845 19.1016 16.1667 19.5549C15.4883 20.0082 14.6908 20.2501 13.8749 20.2501C12.7813 20.2488 11.7328 19.8138 10.9595 19.0405C10.1862 18.2672 9.75117 17.2187 9.74992 16.1251ZM29.4506 25.3782C29.284 25.4868 29.081 25.5249 28.8864 25.4839C28.6918 25.4429 28.5214 25.3263 28.4127 25.1598C27.7326 24.1118 26.8008 23.2507 25.7025 22.6551C24.6042 22.0596 23.3743 21.7484 22.1249 21.7501C21.926 21.7501 21.7352 21.6711 21.5946 21.5304C21.4539 21.3898 21.3749 21.199 21.3749 21.0001C21.3749 20.8012 21.4539 20.6104 21.5946 20.4698C21.7352 20.3291 21.926 20.2501 22.1249 20.2501C22.7324 20.2495 23.3322 20.1148 23.8816 19.8555C24.431 19.5962 24.9163 19.2188 25.3029 18.7502C25.6895 18.2817 25.9678 17.7335 26.118 17.1449C26.2682 16.5563 26.2865 15.9417 26.1716 15.3452C26.0568 14.7487 25.8116 14.1849 25.4536 13.6941C25.0956 13.2034 24.6337 12.7977 24.1007 12.5062C23.5678 12.2146 22.977 12.0444 22.3707 12.0076C21.7643 11.9709 21.1573 12.0685 20.5931 12.2935C20.501 12.3333 20.402 12.3542 20.3018 12.3551C20.2016 12.3559 20.1022 12.3367 20.0095 12.2985C19.9169 12.2602 19.8328 12.2038 19.7623 12.1326C19.6918 12.0614 19.6363 11.9767 19.5991 11.8836C19.5619 11.7906 19.5437 11.691 19.5456 11.5908C19.5475 11.4906 19.5695 11.3918 19.6102 11.3002C19.651 11.2086 19.7097 11.1261 19.7828 11.0576C19.856 10.9891 19.9421 10.936 20.0362 10.9013C21.3275 10.3863 22.7639 10.3678 24.0681 10.8493C25.3723 11.3308 26.452 12.2783 27.0989 13.5089C27.7458 14.7395 27.914 16.1661 27.5711 17.5134C27.2283 18.8608 26.3986 20.0334 25.2421 20.8051C27.0604 21.4752 28.6133 22.7154 29.669 24.3404C29.7776 24.507 29.8156 24.7099 29.7747 24.9045C29.7337 25.0992 29.6171 25.2695 29.4506 25.3782Z" fill="#4277BB"/>
</g>
<defs>
<clipPath id="clip0_144_1553">
<rect width="36" height="36" rx="6" fill="white"/>
</clipPath>
</defs>
</svg>
