<svg width="270" height="47" viewBox="0 0 270 47" fill="none" xmlns="http://www.w3.org/2000/svg">
<rect width="270" height="47" rx="12" fill="#FEFEFE"/>
<path d="M27.5644 27.4328C27.0028 26.8722 27.0028 25.9608 27.5644 25.4002C28.1259 24.8386 29.0354 24.8386 29.597 25.4002C30.8677 26.6709 33.0853 26.6719 34.3561 25.4002L39.1372 20.6191C40.4492 19.3071 40.4492 17.1719 39.1372 15.86C37.8252 14.548 35.6901 14.548 34.3781 15.86C33.8165 16.4216 32.9071 16.4216 32.3455 15.86C31.7839 15.2993 31.7839 14.388 32.3455 13.8273C34.7777 11.3941 38.7376 11.3941 41.1698 13.8273C43.603 16.2606 43.603 20.2185 41.1698 22.6517L36.3887 27.4328C35.1716 28.6499 33.5741 29.2575 31.9765 29.2575C30.379 29.2575 28.7805 28.6489 27.5644 27.4328ZM26.238 34.9969C27.8356 34.9969 29.4331 34.3884 30.6502 33.1723C31.2118 32.6116 31.2118 31.7003 30.6502 31.1396C30.0886 30.5781 29.1792 30.5781 28.6176 31.1396C27.3047 32.4526 25.1695 32.4516 23.8585 31.1396C22.5465 29.8277 22.5465 27.6925 23.8585 26.3806L28.6128 21.6263C29.9257 20.3133 32.0609 20.3133 33.3719 21.6263C33.9334 22.1878 34.8429 22.1878 35.4045 21.6263C35.9661 21.0656 35.9661 20.1543 35.4045 19.5936C32.9713 17.1604 29.0134 17.1604 26.5802 19.5936L21.8249 24.3479C19.3917 26.7811 19.3917 30.7391 21.8249 33.1723C23.042 34.3893 24.6405 34.9969 26.238 34.9969Z" fill="black"/>
<path d="M57.2784 29V17.3636H59.0341V27.4886H64.3068V29H57.2784ZM66.1733 29V20.2727H67.8722V29H66.1733ZM67.0312 18.9261C66.7358 18.9261 66.482 18.8277 66.2699 18.6307C66.0616 18.4299 65.9574 18.1913 65.9574 17.9148C65.9574 17.6345 66.0616 17.3958 66.2699 17.1989C66.482 16.9981 66.7358 16.8977 67.0312 16.8977C67.3267 16.8977 67.5786 16.9981 67.7869 17.1989C67.9991 17.3958 68.1051 17.6345 68.1051 17.9148C68.1051 18.1913 67.9991 18.4299 67.7869 18.6307C67.5786 18.8277 67.3267 18.9261 67.0312 18.9261ZM71.8565 23.8182V29H70.1577V20.2727H71.7884V21.6932H71.8963C72.0971 21.2311 72.4115 20.8598 72.8395 20.5795C73.2713 20.2992 73.8149 20.1591 74.4702 20.1591C75.0649 20.1591 75.5857 20.2841 76.0327 20.5341C76.4796 20.7803 76.8262 21.1477 77.0724 21.6364C77.3187 22.125 77.4418 22.7292 77.4418 23.4489V29H75.7429V23.6534C75.7429 23.0208 75.5781 22.5265 75.2486 22.1705C74.919 21.8106 74.4664 21.6307 73.8906 21.6307C73.4967 21.6307 73.1463 21.7159 72.8395 21.8864C72.5365 22.0568 72.2959 22.3068 72.1179 22.6364C71.9437 22.9621 71.8565 23.3561 71.8565 23.8182ZM81.2827 26.0398L81.2713 23.9659H81.5668L85.044 20.2727H87.0781L83.1122 24.4773H82.8452L81.2827 26.0398ZM79.7202 29V17.3636H81.419V29H79.7202ZM85.2315 29L82.1065 24.8523L83.277 23.6648L87.3168 29H85.2315ZM92.0284 29.1761C91.1686 29.1761 90.428 28.9924 89.8068 28.625C89.1894 28.2538 88.7121 27.733 88.375 27.0625C88.0417 26.3883 87.875 25.5985 87.875 24.6932C87.875 23.7992 88.0417 23.0114 88.375 22.3295C88.7121 21.6477 89.1818 21.1155 89.7841 20.733C90.3902 20.3504 91.0985 20.1591 91.9091 20.1591C92.4015 20.1591 92.8788 20.2405 93.3409 20.4034C93.803 20.5663 94.2178 20.822 94.5852 21.1705C94.9527 21.5189 95.2424 21.9716 95.4545 22.5284C95.6667 23.0814 95.7727 23.7538 95.7727 24.5455V25.1477H88.8352V23.875H94.108C94.108 23.428 94.017 23.0322 93.8352 22.6875C93.6534 22.339 93.3977 22.0644 93.0682 21.8636C92.7424 21.6629 92.3598 21.5625 91.9205 21.5625C91.4432 21.5625 91.0265 21.6799 90.6705 21.9148C90.3182 22.1458 90.0455 22.4489 89.8523 22.8239C89.6629 23.1951 89.5682 23.5985 89.5682 24.0341V25.0284C89.5682 25.6117 89.6705 26.108 89.875 26.517C90.0833 26.9261 90.3731 27.2386 90.7443 27.4545C91.1155 27.6667 91.5492 27.7727 92.0455 27.7727C92.3674 27.7727 92.661 27.7273 92.9261 27.6364C93.1913 27.5417 93.4205 27.4015 93.6136 27.2159C93.8068 27.0303 93.9545 26.8011 94.0568 26.5284L95.6648 26.8182C95.536 27.2917 95.3049 27.7064 94.9716 28.0625C94.642 28.4148 94.2273 28.6894 93.7273 28.8864C93.2311 29.0795 92.6648 29.1761 92.0284 29.1761ZM100.925 29.1705C100.22 29.1705 99.5914 28.9905 99.0384 28.6307C98.4891 28.267 98.0573 27.75 97.7429 27.0795C97.4323 26.4053 97.277 25.5966 97.277 24.6534C97.277 23.7102 97.4342 22.9034 97.7486 22.233C98.0668 21.5625 98.5024 21.0492 99.0554 20.6932C99.6084 20.3371 100.235 20.1591 100.936 20.1591C101.478 20.1591 101.913 20.25 102.243 20.4318C102.576 20.6098 102.834 20.8182 103.016 21.0568C103.201 21.2955 103.345 21.5057 103.447 21.6875H103.55V17.3636H105.249V29H103.589V27.642H103.447C103.345 27.8277 103.197 28.0398 103.004 28.2784C102.815 28.517 102.554 28.7254 102.22 28.9034C101.887 29.0814 101.455 29.1705 100.925 29.1705ZM101.3 27.7216C101.788 27.7216 102.201 27.5928 102.538 27.3352C102.879 27.0739 103.137 26.7121 103.311 26.25C103.489 25.7879 103.578 25.25 103.578 24.6364C103.578 24.0303 103.491 23.5 103.317 23.0455C103.143 22.5909 102.887 22.2367 102.55 21.983C102.213 21.7292 101.796 21.6023 101.3 21.6023C100.788 21.6023 100.362 21.7348 100.021 22C99.6804 22.2652 99.4228 22.6269 99.2486 23.0852C99.0781 23.5436 98.9929 24.0606 98.9929 24.6364C98.9929 25.2197 99.08 25.7443 99.2543 26.2102C99.4285 26.6761 99.6861 27.0455 100.027 27.3182C100.372 27.5871 100.796 27.7216 101.3 27.7216ZM111.47 18.875V17.3636H120.476V18.875H116.845V29H115.095V18.875H111.47ZM124.74 29.1761C123.922 29.1761 123.208 28.9886 122.598 28.6136C121.988 28.2386 121.515 27.714 121.178 27.0398C120.84 26.3655 120.672 25.5777 120.672 24.6761C120.672 23.7708 120.84 22.9792 121.178 22.3011C121.515 21.6231 121.988 21.0966 122.598 20.7216C123.208 20.3466 123.922 20.1591 124.74 20.1591C125.558 20.1591 126.272 20.3466 126.882 20.7216C127.492 21.0966 127.965 21.6231 128.303 22.3011C128.64 22.9792 128.808 23.7708 128.808 24.6761C128.808 25.5777 128.64 26.3655 128.303 27.0398C127.965 27.714 127.492 28.2386 126.882 28.6136C126.272 28.9886 125.558 29.1761 124.74 29.1761ZM124.746 27.75C125.276 27.75 125.715 27.6098 126.064 27.3295C126.412 27.0492 126.67 26.6761 126.837 26.2102C127.007 25.7443 127.092 25.2311 127.092 24.6705C127.092 24.1136 127.007 23.6023 126.837 23.1364C126.67 22.6667 126.412 22.2898 126.064 22.0057C125.715 21.7216 125.276 21.5795 124.746 21.5795C124.212 21.5795 123.768 21.7216 123.416 22.0057C123.068 22.2898 122.808 22.6667 122.638 23.1364C122.471 23.6023 122.388 24.1136 122.388 24.6705C122.388 25.2311 122.471 25.7443 122.638 26.2102C122.808 26.6761 123.068 27.0492 123.416 27.3295C123.768 27.6098 124.212 27.75 124.746 27.75ZM134.381 29.1761C133.563 29.1761 132.848 28.9886 132.239 28.6136C131.629 28.2386 131.155 27.714 130.818 27.0398C130.481 26.3655 130.312 25.5777 130.312 24.6761C130.312 23.7708 130.481 22.9792 130.818 22.3011C131.155 21.6231 131.629 21.0966 132.239 20.7216C132.848 20.3466 133.563 20.1591 134.381 20.1591C135.199 20.1591 135.913 20.3466 136.523 20.7216C137.133 21.0966 137.606 21.6231 137.943 22.3011C138.28 22.9792 138.449 23.7708 138.449 24.6761C138.449 25.5777 138.28 26.3655 137.943 27.0398C137.606 27.714 137.133 28.2386 136.523 28.6136C135.913 28.9886 135.199 29.1761 134.381 29.1761ZM134.386 27.75C134.917 27.75 135.356 27.6098 135.705 27.3295C136.053 27.0492 136.311 26.6761 136.477 26.2102C136.648 25.7443 136.733 25.2311 136.733 24.6705C136.733 24.1136 136.648 23.6023 136.477 23.1364C136.311 22.6667 136.053 22.2898 135.705 22.0057C135.356 21.7216 134.917 21.5795 134.386 21.5795C133.852 21.5795 133.409 21.7216 133.057 22.0057C132.708 22.2898 132.449 22.6667 132.278 23.1364C132.112 23.6023 132.028 24.1136 132.028 24.6705C132.028 25.2311 132.112 25.7443 132.278 26.2102C132.449 26.6761 132.708 27.0492 133.057 27.3295C133.409 27.6098 133.852 27.75 134.386 27.75ZM142.044 17.3636V29H140.345V17.3636H142.044ZM150.869 22.4034L149.33 22.6761C149.265 22.4792 149.163 22.2917 149.023 22.1136C148.886 21.9356 148.701 21.7898 148.466 21.6761C148.231 21.5625 147.938 21.5057 147.585 21.5057C147.104 21.5057 146.703 21.6136 146.381 21.8295C146.059 22.0417 145.898 22.3163 145.898 22.6534C145.898 22.9451 146.006 23.1799 146.222 23.358C146.438 23.536 146.786 23.6818 147.267 23.7955L148.653 24.1136C149.456 24.2992 150.055 24.5852 150.449 24.9716C150.843 25.358 151.04 25.8598 151.04 26.4773C151.04 27 150.888 27.4659 150.585 27.875C150.286 28.2803 149.867 28.5985 149.33 28.8295C148.795 29.0606 148.176 29.1761 147.472 29.1761C146.494 29.1761 145.697 28.9678 145.08 28.5511C144.462 28.1307 144.083 27.5341 143.943 26.7614L145.585 26.5114C145.688 26.9394 145.898 27.2633 146.216 27.483C146.534 27.6989 146.949 27.8068 147.46 27.8068C148.017 27.8068 148.462 27.6913 148.795 27.4602C149.129 27.2254 149.295 26.9394 149.295 26.6023C149.295 26.3295 149.193 26.1004 148.989 25.9148C148.788 25.7292 148.479 25.589 148.062 25.4943L146.585 25.1705C145.771 24.9848 145.169 24.6894 144.778 24.2841C144.392 23.8788 144.199 23.3655 144.199 22.7443C144.199 22.2292 144.343 21.7784 144.631 21.392C144.919 21.0057 145.316 20.7045 145.824 20.4886C146.331 20.2689 146.913 20.1591 147.568 20.1591C148.511 20.1591 149.254 20.3636 149.795 20.7727C150.337 21.178 150.695 21.7216 150.869 22.4034Z" fill="#030607"/>
</svg>
