<svg width="30" height="23" viewBox="0 0 30 23" fill="none" xmlns="http://www.w3.org/2000/svg">
<path d="M11.5644 15.4333C11.0028 14.8727 11.0028 13.9613 11.5644 13.4007C12.1259 12.8391 13.0354 12.8391 13.597 13.4007C14.8677 14.6714 17.0853 14.6724 18.3561 13.4007L23.1372 8.61954C24.4492 7.30759 24.4492 5.17242 23.1372 3.86046C21.8252 2.5485 19.6901 2.5485 18.3781 3.86046C17.8165 4.42204 16.9071 4.42204 16.3455 3.86046C15.7839 3.29984 15.7839 2.38846 16.3455 1.82784C18.7777 -0.605372 22.7376 -0.605372 25.1698 1.82784C27.603 4.26104 27.603 8.21896 25.1698 10.6522L20.3887 15.4333C19.1716 16.6504 17.5741 17.258 15.9765 17.258C14.379 17.258 12.7805 16.6494 11.5644 15.4333ZM10.238 22.9974C11.8356 22.9974 13.4331 22.3889 14.6502 21.1728C15.2118 20.6121 15.2118 19.7008 14.6502 19.1401C14.0886 18.5785 13.1792 18.5785 12.6176 19.1401C11.3047 20.453 9.16949 20.4521 7.85849 19.1401C6.54653 17.8282 6.54653 15.693 7.85849 14.381L12.6128 9.62675C13.9257 8.31384 16.0609 8.31384 17.3719 9.62675C17.9334 10.1883 18.8429 10.1883 19.4045 9.62675C19.9661 9.06613 19.9661 8.15475 19.4045 7.59413C16.9713 5.16092 13.0134 5.16092 10.5802 7.59413L5.82491 12.3484C3.3917 14.7816 3.3917 18.7395 5.82491 21.1728C7.04199 22.3898 8.64049 22.9974 10.238 22.9974Z" fill="black"/>
</svg>
