<svg width="19" height="19" viewBox="0 0 19 19" fill="none" xmlns="http://www.w3.org/2000/svg">
<path d="M16.4618 13.058C16.0499 12.3485 15.4376 10.3409 15.4376 7.71875C15.4376 6.14403 14.8121 4.6338 13.6986 3.5203C12.5851 2.40681 11.0748 1.78125 9.50012 1.78125C7.92539 1.78125 6.41517 2.40681 5.30167 3.5203C4.18817 4.6338 3.56262 6.14403 3.56262 7.71875C3.56262 10.3416 2.94957 12.3485 2.53766 13.058C2.43247 13.2384 2.3767 13.4434 2.37598 13.6522C2.37527 13.861 2.42962 14.0663 2.53357 14.2474C2.63752 14.4285 2.78739 14.579 2.96805 14.6837C3.14872 14.7884 3.3538 14.8436 3.56262 14.8438H6.59148C6.72847 15.5141 7.09277 16.1165 7.62278 16.5491C8.15278 16.9818 8.81595 17.2181 9.50012 17.2181C10.1843 17.2181 10.8475 16.9818 11.3775 16.5491C11.9075 16.1165 12.2718 15.5141 12.4087 14.8438H15.4376C15.6464 14.8435 15.8514 14.7882 16.0319 14.6834C16.2125 14.5787 16.3622 14.4282 16.4661 14.2471C16.57 14.066 16.6243 13.8607 16.6235 13.652C16.6228 13.4432 16.567 13.2384 16.4618 13.058ZM9.50012 16.0312C9.13186 16.0311 8.77269 15.9169 8.47204 15.7042C8.17139 15.4916 7.94404 15.1909 7.82129 14.8438H11.1789C11.0562 15.1909 10.8288 15.4916 10.5282 15.7042C10.2275 15.9169 9.86838 16.0311 9.50012 16.0312ZM3.56262 13.6562C4.1341 12.6736 4.75012 10.3966 4.75012 7.71875C4.75012 6.45897 5.25056 5.25079 6.14136 4.35999C7.03216 3.4692 8.24034 2.96875 9.50012 2.96875C10.7599 2.96875 11.9681 3.4692 12.8589 4.35999C13.7497 5.25079 14.2501 6.45897 14.2501 7.71875C14.2501 10.3943 14.8646 12.6714 15.4376 13.6562H3.56262Z" fill="black"/>
</svg>
