<svg width="30" height="23" viewBox="0 0 30 23" fill="none" xmlns="http://www.w3.org/2000/svg">
<path d="M11.625 11.5C8.45388 11.5 5.875 8.92112 5.875 5.75C5.875 2.57887 8.45388 0 11.625 0C14.7961 0 17.375 2.57887 17.375 5.75C17.375 8.92112 14.7961 11.5 11.625 11.5ZM22.0057 21.6152L23.6377 19.1667H25.0417C25.5707 19.1667 26 18.7373 26 18.2083C26 17.6793 25.5707 17.25 25.0417 17.25H23.125C22.8049 17.25 22.5059 17.41 22.3277 17.6765L21.3272 19.1772L19.191 14.904C19.0377 14.5983 18.7339 14.397 18.3927 14.376C18.0535 14.3482 17.7248 14.5168 17.536 14.8005L15.904 17.249H14.5C13.971 17.249 13.5417 17.6784 13.5417 18.2074C13.5417 18.7364 13.971 19.1657 14.5 19.1657H16.4167C16.7367 19.1657 17.0357 19.0057 17.214 18.7393L18.2145 17.2385L20.3506 21.5117C20.504 21.8174 20.8077 22.0187 21.1489 22.0397C21.4872 22.0618 21.8169 21.8989 22.0057 21.6152ZM18.6371 22.3704L17.813 20.722C17.3922 20.9559 16.914 21.0833 16.4157 21.0833H14.499C12.914 21.0833 11.624 19.7934 11.624 18.2083C11.624 16.6232 12.914 15.3333 14.499 15.3333H14.8776L15.5264 14.3597C14.3534 13.7607 13.029 13.4167 11.624 13.4167C6.86975 13.4167 3 17.2864 3 22.0417C3 22.5707 3.42933 23 3.95833 23H19.0674C18.8988 22.8122 18.7531 22.6013 18.6371 22.3704Z" fill="#030607"/>
</svg>
