<svg width="30" height="23" viewBox="0 0 30 23" fill="none" xmlns="http://www.w3.org/2000/svg">
<path d="M25.0719 11.4561C25.0776 10.3003 24.6387 8.90501 22.608 8.53318C22.5026 8.33193 22.3866 8.12972 22.2592 7.92656C23.2827 6.50918 23.2041 5.19435 22.0215 4.01176C20.838 2.82726 19.5231 2.74964 18.1048 3.77697C17.9045 3.65047 17.7042 3.53547 17.5039 3.43197C17.1378 1.40797 15.7559 0.959473 14.6031 0.959473C12.9863 0.959473 11.9475 1.81335 11.6456 3.47414C11.4463 3.5786 11.2451 3.69456 11.0428 3.82106C9.63122 2.80139 8.31543 2.8886 7.12039 4.08172C5.92918 5.27389 5.84293 6.59064 6.85972 8.00226C6.73226 8.20543 6.61535 8.40764 6.50897 8.60889C4.85201 8.91172 4.00868 9.89785 4.00006 11.5443C3.99431 12.7 4.43322 14.0953 6.46393 14.4672C6.56935 14.6684 6.68531 14.8706 6.81372 15.0738C5.78926 16.4912 5.86785 17.806 7.05043 18.9886C8.23397 20.1731 9.54976 20.2507 10.9671 19.2234C11.1674 19.3499 11.3677 19.4649 11.568 19.5684C11.9341 21.5924 13.316 22.0409 14.4689 22.0409C16.1795 22.0409 17.1244 21.187 17.4263 19.5262C17.6256 19.4218 17.8269 19.3058 18.0291 19.1793C20.2821 20.8746 21.9506 18.9186 21.9516 18.9186C23.115 17.8175 23.23 16.4097 22.2122 14.9971C22.3397 14.794 22.4566 14.5918 22.563 14.3915C24.2199 14.0886 25.0633 13.1025 25.0719 11.4561ZM16.8954 13.8596C16.1124 14.6435 15.3688 15.0805 14.3366 15.0192C13.363 14.9607 12.6375 14.3215 12.1766 13.8596C10.6106 12.2946 10.6106 10.7057 12.1766 9.1398C13.0218 8.29264 13.8575 7.90739 14.7353 7.98118C15.708 8.05593 16.4344 8.67885 16.8954 9.14076C18.4603 10.7057 18.4613 12.2946 16.8954 13.8606V13.8596Z" fill="black"/>
</svg>
