<svg width="30" height="23" viewBox="0 0 30 23" fill="none" xmlns="http://www.w3.org/2000/svg">
<g clip-path="url(#clip0_347_133)">
<path d="M16.7171 7.16851C15.938 7.94763 15.5 9.00372 15.5 10.1058V11.021C15.5 11.2855 15.7147 11.5002 15.9792 11.5002H16.8944C17.9955 11.5002 19.0525 11.0622 19.8307 10.2841L26.2659 3.84884C27.0805 3.03426 27.2367 1.70601 26.5074 0.813802C25.6689 -0.211615 24.1537 -0.268157 23.2405 0.645135L16.7171 7.16851ZM21.1868 11.6382C20.0415 12.7843 18.5168 13.4159 16.8944 13.4159H15.5C14.442 13.4159 13.5833 12.5572 13.5833 11.4992V10.1048C13.5833 8.48334 14.2149 6.95959 15.361 5.81247L20.6012 0.574218C19.9332 0.219635 19.1829 0.000176583 18.375 0.000176583H8.79167C6.14954 0.000176583 4 2.14972 4 4.79184V18.2085C4 20.8506 6.14954 23.0002 8.79167 23.0002H18.375C21.0171 23.0002 23.1667 20.8506 23.1667 18.2085V9.65922L21.1868 11.6391V11.6382ZM11.8267 15.9718L10.21 17.5885C9.79696 18.0015 9.25646 18.2095 8.71404 18.2095C8.20325 18.2095 7.69246 18.0245 7.28517 17.6517L6.64404 17.0968C6.24442 16.7499 6.20129 16.1452 6.54725 15.7446C6.89512 15.345 7.49983 15.3019 7.89946 15.6478L8.55975 16.2209C8.65846 16.3101 8.77825 16.3091 8.85396 16.2334L10.4707 14.6167C10.8454 14.242 11.451 14.242 11.8258 14.6167C12.2005 14.9914 12.2014 15.5971 11.8267 15.9718ZM11.8267 11.1801L10.21 12.7968C9.79696 13.2098 9.25646 13.4178 8.71404 13.4178C8.20325 13.4178 7.69246 13.2328 7.28517 12.8601L6.64404 12.3052C6.24442 11.9583 6.20129 11.3526 6.54725 10.953C6.89512 10.5514 7.49983 10.5112 7.89946 10.8562L8.55975 11.4293C8.65846 11.5184 8.77825 11.5174 8.85396 11.4417L10.4707 9.82501C10.8454 9.4503 11.451 9.4503 11.8258 9.82501C12.2005 10.1997 12.2014 10.8054 11.8267 11.1801ZM11.8267 6.42676L10.21 8.04347C9.79696 8.45651 9.25646 8.66447 8.71404 8.66447C8.20325 8.66447 7.69246 8.47951 7.28517 8.10672L6.64404 7.55184C6.24442 7.20493 6.20129 6.59926 6.54725 6.19963C6.89512 5.79905 7.49983 5.75784 7.89946 6.10284L8.55975 6.67593C8.65846 6.76601 8.77825 6.76409 8.85396 6.68838L10.4707 5.07168C10.8454 4.69697 11.451 4.69697 11.8258 5.07168C12.2005 5.44638 12.2014 6.05205 11.8267 6.42676ZM19.3333 17.2492H15.5C14.97 17.2492 14.5417 16.8208 14.5417 16.2909C14.5417 15.7609 14.97 15.3326 15.5 15.3326H19.3333C19.8633 15.3326 20.2917 15.7609 20.2917 16.2909C20.2917 16.8208 19.8633 17.2492 19.3333 17.2492Z" fill="#030607"/>
</g>
<defs>
<clipPath id="clip0_347_133">
<rect width="30" height="23" fill="white"/>
</clipPath>
</defs>
</svg>
