<svg width="17" height="17" viewBox="0 0 17 17" fill="none" xmlns="http://www.w3.org/2000/svg">
<path d="M15.2512 5.15741L6.75115 13.6574C6.70182 13.7068 6.64323 13.746 6.57873 13.7727C6.51424 13.7995 6.44511 13.8132 6.3753 13.8132C6.30548 13.8132 6.23635 13.7995 6.17186 13.7727C6.10737 13.746 6.04877 13.7068 5.99944 13.6574L2.28069 9.93865C2.181 9.83897 2.125 9.70377 2.125 9.5628C2.125 9.42182 2.181 9.28662 2.28069 9.18694C2.38037 9.08725 2.51557 9.03125 2.65655 9.03125C2.79752 9.03125 2.93272 9.08725 3.0324 9.18694L6.3753 12.5305L14.4994 4.40569C14.5991 4.306 14.7343 4.25 14.8753 4.25C15.0163 4.25 15.1515 4.306 15.2512 4.40569C15.3508 4.50537 15.4068 4.64057 15.4068 4.78155C15.4068 4.92252 15.3508 5.05772 15.2512 5.15741Z" fill="#4277BB"/>
</svg>
