<svg width="19" height="19" viewBox="0 0 19 19" fill="none" xmlns="http://www.w3.org/2000/svg">
<path d="M8.70144 11.7207C9.49721 11.1909 10.1014 10.4191 10.4246 9.51943C10.7478 8.61973 10.7729 7.6399 10.4961 6.72484C10.2194 5.80977 9.65552 5.00806 8.8879 4.43825C8.12027 3.86844 7.18966 3.56079 6.23366 3.56079C5.27767 3.56079 4.34705 3.86844 3.57943 4.43825C2.81181 5.00806 2.24794 5.80977 1.9712 6.72484C1.69446 7.6399 1.71955 8.61973 2.04275 9.51943C2.36596 10.4191 2.97012 11.1909 3.76589 11.7207C2.32641 12.2513 1.09706 13.233 0.261281 14.5195C0.217356 14.5848 0.186845 14.6582 0.171522 14.7353C0.1562 14.8125 0.156371 14.892 0.172027 14.9691C0.187682 15.0462 0.21851 15.1194 0.262717 15.1845C0.306924 15.2496 0.36363 15.3053 0.429537 15.3483C0.495444 15.3913 0.569239 15.4207 0.646631 15.4349C0.724023 15.4492 0.80347 15.4479 0.880352 15.4311C0.957234 15.4143 1.03002 15.3825 1.09447 15.3373C1.15893 15.2922 1.21377 15.2347 1.25581 15.1682C1.79493 14.339 2.53264 13.6576 3.40195 13.1859C4.27126 12.7142 5.24463 12.4672 6.23366 12.4672C7.2227 12.4672 8.19607 12.7142 9.06538 13.1859C9.93469 13.6576 10.6724 14.339 11.2115 15.1682C11.2986 15.2976 11.4331 15.3876 11.586 15.4186C11.7389 15.4497 11.8978 15.4193 12.0285 15.334C12.1592 15.2488 12.251 15.1156 12.2843 14.9632C12.3175 14.8108 12.2894 14.6514 12.206 14.5195C11.3703 13.233 10.1409 12.2513 8.70144 11.7207ZM2.96804 8.01572C2.96804 7.36984 3.15956 6.73847 3.5184 6.20144C3.87723 5.66441 4.38725 5.24585 4.98396 4.99868C5.58068 4.75151 6.23729 4.68684 6.87076 4.81285C7.50423 4.93885 8.0861 5.24987 8.54281 5.70658C8.99952 6.16328 9.31054 6.74516 9.43654 7.37863C9.56255 8.0121 9.49788 8.66871 9.25071 9.26542C9.00354 9.86214 8.58498 10.3722 8.04795 10.731C7.51092 11.0898 6.87954 11.2813 6.23366 11.2813C5.36787 11.2804 4.53781 10.936 3.9256 10.3238C3.31339 9.71157 2.96902 8.88152 2.96804 8.01572ZM18.5644 15.3411C18.4325 15.4271 18.2718 15.4572 18.1178 15.4248C17.9637 15.3924 17.8288 15.3001 17.7428 15.1682C17.2043 14.3385 16.4667 13.6568 15.5972 13.1853C14.7277 12.7138 13.754 12.4675 12.7649 12.4688C12.6074 12.4688 12.4564 12.4063 12.3451 12.2949C12.2337 12.1836 12.1712 12.0326 12.1712 11.8751C12.1712 11.7176 12.2337 11.5666 12.3451 11.4553C12.4564 11.3439 12.6074 11.2813 12.7649 11.2813C13.2458 11.2809 13.7207 11.1742 14.1556 10.969C14.5905 10.7637 14.9747 10.4649 15.2808 10.094C15.5869 9.72302 15.8072 9.28904 15.9261 8.82306C16.045 8.35707 16.0595 7.87057 15.9686 7.39833C15.8776 6.92609 15.6835 6.47976 15.4001 6.09123C15.1167 5.7027 14.751 5.38156 14.3291 5.15076C13.9072 4.91995 13.4395 4.78519 12.9595 4.75608C12.4794 4.72698 11.9989 4.80426 11.5522 4.9824C11.4793 5.01389 11.4009 5.03046 11.3216 5.03113C11.2423 5.0318 11.1636 5.01656 11.0902 4.98631C11.0169 4.95606 10.9503 4.91141 10.8945 4.85501C10.8387 4.7986 10.7948 4.73158 10.7653 4.65791C10.7358 4.58424 10.7214 4.50541 10.7229 4.42607C10.7245 4.34674 10.7418 4.26851 10.7741 4.19602C10.8064 4.12352 10.8528 4.05823 10.9107 4.004C10.9687 3.94976 11.0369 3.90768 11.1113 3.88025C12.1337 3.47253 13.2708 3.45786 14.3033 3.83907C15.3358 4.22027 16.1906 4.97035 16.7027 5.94459C17.2148 6.91883 17.348 8.0482 17.0765 9.11484C16.8051 10.1815 16.1482 11.1098 15.2327 11.7207C16.6722 12.2513 17.9015 13.233 18.7373 14.5195C18.8233 14.6514 18.8534 14.812 18.821 14.9661C18.7885 15.1202 18.6962 15.2551 18.5644 15.3411Z" fill="black"/>
</svg>
