<svg width="225" height="54" viewBox="0 0 225 54" fill="none" xmlns="http://www.w3.org/2000/svg">
<path d="M66.4216 34.2124V10.4776H69.6364V34.2124H66.4216ZM81.7432 34.2124V10.4776H84.958V34.2124H81.7432ZM68.6104 23.4052V20.464H82.5298V23.4052H68.6104ZM97.5455 34.5544C95.9267 34.5544 94.4675 34.1896 93.1679 33.46C91.8683 32.7076 90.8423 31.693 90.0899 30.4162C89.3375 29.1394 88.9613 27.6916 88.9613 26.0728C88.9613 24.4768 89.3261 23.0404 90.0557 21.7636C90.8081 20.4868 91.8113 19.4836 93.0653 18.754C94.3421 18.0016 95.7671 17.6254 97.3403 17.6254C98.8451 17.6254 100.167 17.9674 101.307 18.6514C102.47 19.3354 103.371 20.2816 104.009 21.49C104.67 22.6984 105.001 24.0664 105.001 25.594C105.001 25.822 104.99 26.0728 104.967 26.3464C104.944 26.5972 104.898 26.8936 104.83 27.2356H91.1159V24.6706H103.188L102.06 25.6624C102.06 24.568 101.866 23.6446 101.478 22.8922C101.091 22.117 100.544 21.5242 99.8369 21.1138C99.1301 20.6806 98.2751 20.464 97.2719 20.464C96.2231 20.464 95.2997 20.692 94.5017 21.148C93.7037 21.604 93.0881 22.2424 92.6549 23.0632C92.2217 23.884 92.0051 24.853 92.0051 25.9702C92.0051 27.1102 92.2331 28.1134 92.6891 28.9798C93.1451 29.8234 93.7949 30.4846 94.6385 30.9634C95.4821 31.4194 96.4511 31.6474 97.5455 31.6474C98.4575 31.6474 99.2897 31.4878 100.042 31.1686C100.817 30.8494 101.478 30.3706 102.026 29.7322L104.009 31.75C103.234 32.662 102.276 33.3574 101.136 33.8362C100.019 34.315 98.8223 34.5544 97.5455 34.5544ZM115.266 34.5544C113.784 34.5544 112.438 34.1896 111.23 33.46C110.022 32.7076 109.064 31.693 108.357 30.4162C107.673 29.1394 107.331 27.703 107.331 26.107C107.331 24.511 107.673 23.0746 108.357 21.7978C109.064 20.521 110.01 19.5064 111.196 18.754C112.404 18.0016 113.761 17.6254 115.266 17.6254C116.497 17.6254 117.591 17.8876 118.549 18.412C119.529 18.9136 120.316 19.6204 120.909 20.5324C121.501 21.4216 121.832 22.459 121.9 23.6446V28.5352C121.832 29.698 121.501 30.7354 120.909 31.6474C120.339 32.5594 119.563 33.2776 118.583 33.802C117.625 34.3036 116.52 34.5544 115.266 34.5544ZM115.779 31.6474C117.306 31.6474 118.537 31.1344 119.472 30.1084C120.407 29.0596 120.874 27.7258 120.874 26.107C120.874 24.9898 120.658 24.0208 120.225 23.2C119.814 22.3564 119.221 21.7066 118.446 21.2506C117.671 20.7718 116.77 20.5324 115.744 20.5324C114.718 20.5324 113.806 20.7718 113.008 21.2506C112.233 21.7294 111.618 22.3906 111.162 23.2342C110.728 24.055 110.512 25.0012 110.512 26.0728C110.512 27.1672 110.728 28.1362 111.162 28.9798C111.618 29.8006 112.245 30.4504 113.043 30.9292C113.841 31.408 114.753 31.6474 115.779 31.6474ZM120.669 34.2124V29.8348L121.251 25.8676L120.669 21.9346V17.9674H123.781V34.2124H120.669ZM128.263 34.2124V9.7936H131.341V34.2124H128.263ZM138.341 34.2124V11.1616H141.419V34.2124H138.341ZM134.339 20.7718V17.9674H145.42V20.7718H134.339ZM159.927 34.2124V24.739C159.927 23.5078 159.539 22.4932 158.764 21.6952C157.989 20.8972 156.985 20.4982 155.754 20.4982C154.933 20.4982 154.204 20.6806 153.565 21.0454C152.927 21.4102 152.425 21.9118 152.061 22.5502C151.696 23.1886 151.513 23.9182 151.513 24.739L150.248 24.0208C150.248 22.7896 150.522 21.6952 151.069 20.7376C151.616 19.78 152.38 19.0276 153.36 18.4804C154.341 17.9104 155.446 17.6254 156.678 17.6254C157.909 17.6254 158.992 17.899 159.927 18.4462C160.884 18.9934 161.637 19.7572 162.184 20.7376C162.731 21.718 163.005 22.8466 163.005 24.1234V34.2124H159.927ZM148.435 34.2124V9.7936H151.513V34.2124H148.435ZM167.172 34.2124V17.9674H170.25V34.2124H167.172ZM170.25 24.9442L169.087 24.4312C169.087 22.3564 169.566 20.7034 170.523 19.4722C171.481 18.241 172.86 17.6254 174.662 17.6254C175.482 17.6254 176.223 17.7736 176.885 18.07C177.546 18.3436 178.161 18.811 178.731 19.4722L176.714 21.5584C176.372 21.1936 175.995 20.9314 175.585 20.7718C175.175 20.6122 174.696 20.5324 174.149 20.5324C173.009 20.5324 172.074 20.8972 171.344 21.6268C170.615 22.3564 170.25 23.4622 170.25 24.9442ZM180.933 34.2124V17.9674H184.011V34.2124H180.933ZM182.472 14.7184C181.902 14.7184 181.434 14.536 181.07 14.1712C180.705 13.7836 180.522 13.3048 180.522 12.7348C180.522 12.1876 180.705 11.7316 181.07 11.3668C181.434 10.9792 181.902 10.7854 182.472 10.7854C183.042 10.7854 183.509 10.9792 183.874 11.3668C184.239 11.7316 184.421 12.1876 184.421 12.7348C184.421 13.3048 184.239 13.7836 183.874 14.1712C183.509 14.536 183.042 14.7184 182.472 14.7184ZM194.121 34.2124L186.666 17.9674H190.086L196.071 31.6816H194.087L200.106 17.9674H203.39L195.934 34.2124H194.121ZM212.904 34.5544C211.285 34.5544 209.826 34.1896 208.526 33.46C207.226 32.7076 206.2 31.693 205.448 30.4162C204.696 29.1394 204.319 27.6916 204.319 26.0728C204.319 24.4768 204.684 23.0404 205.414 21.7636C206.166 20.4868 207.169 19.4836 208.423 18.754C209.7 18.0016 211.125 17.6254 212.698 17.6254C214.203 17.6254 215.526 17.9674 216.666 18.6514C217.828 19.3354 218.729 20.2816 219.367 21.49C220.029 22.6984 220.359 24.0664 220.359 25.594C220.359 25.822 220.348 26.0728 220.325 26.3464C220.302 26.5972 220.257 26.8936 220.188 27.2356H206.474V24.6706H218.547L217.418 25.6624C217.418 24.568 217.224 23.6446 216.837 22.8922C216.449 22.117 215.902 21.5242 215.195 21.1138C214.488 20.6806 213.633 20.464 212.63 20.464C211.581 20.464 210.658 20.692 209.86 21.148C209.062 21.604 208.446 22.2424 208.013 23.0632C207.58 23.884 207.363 24.853 207.363 25.9702C207.363 27.1102 207.591 28.1134 208.047 28.9798C208.503 29.8234 209.153 30.4846 209.997 30.9634C210.84 31.4194 211.809 31.6474 212.904 31.6474C213.816 31.6474 214.648 31.4878 215.4 31.1686C216.175 30.8494 216.837 30.3706 217.384 29.7322L219.367 31.75C218.592 32.662 217.635 33.3574 216.495 33.8362C215.377 34.315 214.18 34.5544 212.904 34.5544Z" fill="#4277BB"/>
<path d="M47.5608 9.51274C46.4384 6.59845 44.4249 4.11269 41.8072 2.40959C39.2065 0.745179 36.1569 -0.0792891 33.0718 0.0479479C30.0399 0.229077 27.1383 1.34385 24.7651 3.23935L24.4915 3.45819L25.0113 4.15118L25.2939 3.95058C27.6003 2.37751 30.3257 1.5326 33.1174 1.52511C35.8543 1.53119 38.5239 2.37437 40.7677 3.94146C42.9761 5.50881 44.6527 7.71359 45.573 10.2604C46.4697 12.7831 46.5715 15.5199 45.8648 18.1022C45.5103 19.3755 44.963 20.5871 44.2418 21.6948C44.1597 21.8133 44.0776 21.9319 44.0047 22.0504C43.907 22.2054 43.8005 22.3546 43.6855 22.4972L43.0473 23.2631C42.7464 23.5823 42.4181 23.9105 42.0898 24.2297L41.5427 24.7768L37.0657 29.2903L36.9107 29.3633C36.0535 29.7736 35.4882 30.038 35.5156 30.5122C35.5172 30.6263 35.5592 30.7361 35.6341 30.8222C35.5701 30.837 35.5111 30.8684 35.4631 30.9132C35.4151 30.958 35.3797 31.0147 35.3605 31.0775C35.2562 31.1199 35.165 31.1891 35.0961 31.2781C34.9352 31.4241 34.783 31.5794 34.6402 31.7432L34.239 32.1626L33.856 32.5364L34.1569 32.6641L33.4822 32.7644L34.6311 32.8738L34.8226 32.9832C34.2908 33.1855 33.7367 33.3232 33.1721 33.3936C31.7315 33.7857 31.0749 34.1777 30.9838 34.6975C30.9454 34.86 30.9648 35.0309 31.0385 35.1808C30.6995 35.2873 30.3942 35.4805 30.1528 35.7411C29.9113 36.0018 29.742 36.3209 29.6616 36.667L29.6069 36.8585C29.0664 37.1799 28.6027 37.6156 28.2483 38.1351C28.1277 38.307 27.9968 38.4715 27.8562 38.6275L27.6009 38.9101L27.8835 39.1563C27.9382 39.1563 27.9474 39.2384 27.9565 39.2384C27.9656 39.2384 27.7103 39.594 26.3972 40.1502L25.5401 40.515L26.452 40.8341C26.6652 40.9061 26.8725 40.9945 27.072 41.0985C26.478 41.2797 25.8669 41.3988 25.2483 41.4541H25.148L25.066 41.5271L24.6921 41.8006C24.3456 42.0468 24.063 42.2383 24.0083 42.521L23.7438 42.5848H23.6891C23.5685 42.5594 23.4496 42.5259 23.3335 42.4845C23.3944 42.414 23.4384 42.3306 23.4621 42.2405C23.4858 42.1504 23.4886 42.0561 23.4703 41.9648C23.4441 41.8772 23.3997 41.7962 23.34 41.7271C23.2803 41.6579 23.2066 41.6022 23.1238 41.5636C23.0519 41.4794 22.9849 41.3911 22.9232 41.2991C22.663 40.9124 22.3083 40.5985 21.8928 40.3873C21.6617 40.2379 21.4581 40.0498 21.291 39.8311C21.9749 39.7308 22.2028 39.6031 22.2028 39.2931C22.2028 38.9831 21.7469 38.7551 20.4795 38.5363H20.4065L21.3184 38.3448L19.3579 38.0439C19.002 37.9967 18.651 37.9173 18.3093 37.8068C18.3879 37.7131 18.4468 37.6046 18.4826 37.4877C18.6149 37.4386 18.7301 37.3521 18.8143 37.2388C18.8984 37.1255 18.9479 36.9903 18.9567 36.8494C18.9567 36.4391 18.5099 36.1655 17.361 35.8373C17.3063 35.4999 16.9233 35.2902 16.513 35.0713L16.3033 34.9619C16.3921 34.8511 16.4375 34.7117 16.431 34.5698C16.431 34.1595 16.0024 33.8768 14.9173 33.5303C14.8717 33.2659 14.6346 33.1291 14.3337 33.038C14.1645 32.7744 13.9199 32.5678 13.6316 32.4453C13.4348 32.3396 13.2512 32.2111 13.0845 32.0623V31.962L12.9751 31.8617C12.6377 31.5517 12.3004 31.2143 11.9721 30.8952L11.4888 30.421L9.66517 28.7068C8.6348 27.7129 7.59532 26.6916 6.59231 25.6977L5.00572 24.0929L4.71394 23.7555L4.44039 23.4455L4.27626 23.254C2.61564 21.2557 1.59846 18.8018 1.3584 16.2147C1.22499 14.8269 1.31115 13.4268 1.61371 12.0659C1.94017 10.7232 2.469 9.43801 3.18206 8.25442C4.5876 5.88475 6.73001 4.04016 9.2822 3.00228C11.7933 2.04334 14.5811 2.11213 17.0419 3.19376C19.5406 4.2581 21.6044 6.13865 22.8958 8.52797C24.1975 10.9048 24.5618 13.6829 23.9171 16.315C23.5881 17.6585 23.0431 18.9396 22.3031 20.1082C21.5224 21.3048 20.6538 22.4416 19.7044 23.5093C18.7926 24.5488 17.8808 25.5883 16.9689 26.5913C15.9477 27.7311 14.89 28.9074 13.8869 30.1019L13.659 30.3663L14.2881 30.9499L14.5435 30.7037C15.1909 30.0563 15.8474 29.4271 16.4948 28.7888C17.9172 27.4028 19.3944 25.9713 20.8169 24.5032C21.8553 23.4114 22.8151 22.2474 23.6891 21.02C24.5789 19.7367 25.2533 18.3169 25.686 16.8165C26.5816 13.717 26.2451 10.3914 24.7468 7.53407C23.2633 4.68448 20.8457 2.4311 17.899 1.15126C16.4199 0.515306 14.8268 0.187325 13.2167 0.187325C11.6067 0.187325 10.0136 0.515306 8.5345 1.15126C5.65572 2.44861 3.2889 4.66469 1.8052 7.45201C1.06865 8.81058 0.545815 10.2745 0.255088 11.7923C-0.0211402 13.2961 -0.0733761 14.8324 0.100077 16.3515C0.44087 19.2106 1.59254 21.9126 3.41914 24.1385L4.42215 25.26L5.5437 26.4363C6.58319 27.4849 7.65003 28.57 8.68951 29.6459L10.2487 31.2599C10.1576 31.889 10.9964 32.3997 11.7441 32.8647L11.9174 32.9741H11.9721C12.5101 33.2021 12.5739 33.3662 12.6377 33.5577C12.6731 33.6939 12.7358 33.8216 12.8221 33.9329C12.9083 34.0441 13.0162 34.1368 13.1392 34.2051H13.2213C13.1928 34.2847 13.1928 34.3717 13.2213 34.4513C13.2174 34.4693 13.2174 34.488 13.2213 34.506C13.166 34.5952 13.1323 34.696 13.1228 34.8004C13.1133 34.9049 13.1283 35.0101 13.1666 35.1078C13.3216 35.4452 13.7502 35.6458 14.7349 35.8373C15.0763 35.8766 15.4107 35.9625 15.7288 36.0926C15.6129 36.2224 15.5396 36.3848 15.5191 36.5576V36.6032C15.5191 36.9679 15.8747 37.2141 16.2121 37.4421C16.3457 37.5346 16.4736 37.6351 16.5951 37.743V38.0165L16.9051 38.0713C17.0683 38.0979 17.2296 38.1345 17.3884 38.1807C17.3282 38.2495 17.2859 38.3321 17.2652 38.4211C17.2445 38.5102 17.2461 38.603 17.2698 38.6913C17.3519 38.974 17.6437 39.0925 17.9264 39.1746C18.5646 39.439 18.7561 39.6305 18.8382 39.7125C18.519 39.8858 18.1543 40.1411 18.2181 40.5332C18.282 40.9253 18.8017 41.2079 20.1968 41.445C20.5759 41.4924 20.9508 41.5686 21.3184 41.673C21.1975 41.7689 21.0955 41.8864 21.0175 42.0195L20.7895 42.4663L21.291 42.5483C21.7083 42.605 22.12 42.6965 22.522 42.8219L22.2575 42.9769L21.5007 43.3963L22.3305 43.6517C22.8685 43.8158 22.8867 43.9161 22.9141 44.0529C22.9306 44.1708 22.9676 44.285 23.0235 44.3902C22.9779 44.6455 23.1511 44.7732 23.4247 44.8826C23.4204 44.9006 23.4204 44.9193 23.4247 44.9373C23.4794 45.2747 23.8532 45.2747 23.99 45.2747C24.1268 45.2747 24.5645 45.2747 24.6283 44.9282C24.8289 44.837 24.9748 44.7458 25.0204 44.6C25.0911 44.5681 25.1524 44.5187 25.1987 44.4564C25.245 44.3942 25.2746 44.3212 25.2848 44.2443C25.4679 44.0872 25.6358 43.9132 25.7863 43.7246L26.0416 43.4328L26.0963 43.369V43.3052C26.237 43.1689 26.3931 43.0496 26.5614 42.9495C26.9503 42.7445 27.2682 42.4267 27.4732 42.0377C27.665 41.9603 27.8345 41.8364 27.9666 41.6772C28.0987 41.5181 28.1892 41.3286 28.23 41.1259C28.2847 40.8979 28.3303 40.7247 28.9413 40.4876C29.5522 40.2505 29.9625 40.132 30.0719 39.822C30.1053 39.687 30.1018 39.5455 30.0617 39.4123C30.0216 39.2792 29.9464 39.1592 29.844 39.0651L29.7801 38.974C30.0717 38.8435 30.3778 38.7486 30.692 38.6913L32.2877 38.3813L30.7923 37.9983L31.5856 37.7521C32.6068 37.4421 33.2269 37.2597 33.2269 36.7856V36.7126C33.704 36.6304 34.1349 36.3776 34.4396 36.0014C34.5066 35.883 34.5463 35.7512 34.5558 35.6155C34.5653 35.4798 34.5442 35.3437 34.4943 35.2172V35.2446L35.1691 35.0531C36.5094 34.6792 37.1842 34.4969 37.1568 33.9771C37.1433 33.8714 37.1002 33.7716 37.0325 33.6894C36.9647 33.6071 36.8751 33.5456 36.7739 33.5121C37.3939 33.3389 37.7404 33.2294 37.6857 32.8647H37.7404C38.0596 32.81 38.4152 32.7462 38.3878 32.3814C38.3605 32.0167 38.0778 32.0167 37.8407 31.9985C37.8407 31.9985 37.8407 31.9529 37.8407 31.9255C38.1688 31.6755 38.4472 31.3662 38.6614 31.0137C39.327 30.5669 40.0565 30.1019 40.2024 29.4545L43.3117 26.491L43.7311 26.0807C44.0959 25.7068 44.4788 25.3239 44.8436 24.9227L45.6004 24.0108C45.7645 23.792 45.9104 23.564 46.0563 23.3452C46.2022 23.1264 46.1931 23.1355 46.266 23.0169C47.108 21.6942 47.7386 20.2483 48.1353 18.7313C48.912 15.674 48.7111 12.45 47.5608 9.51274ZM12.2821 32.3085L12.1271 32.2082C11.7624 31.9893 11.0056 31.5243 10.9873 31.2964L11.1241 31.0593L11.042 30.9681L11.4159 31.3328L12.3277 32.2447C12.3243 32.278 12.3243 32.3116 12.3277 32.345L12.2821 32.3085ZM13.3398 33.348C13.3051 33.2445 13.2624 33.1439 13.2122 33.0471L13.4857 33.2112L13.3398 33.348ZM18.3458 38.591L18.6193 38.6548C18.6144 38.6789 18.6144 38.7037 18.6193 38.7278L18.3458 38.591ZM24.1268 44.1714H24.1724C24.1128 44.2221 24.0686 44.2884 24.0447 44.3629L23.7894 44.1714C23.7074 44.1167 23.7074 44.0984 23.68 43.9708C23.6835 43.9375 23.6835 43.9038 23.68 43.8705H24.5918L24.1268 44.1714ZM26.2331 42.3477C25.9438 42.5055 25.6967 42.7307 25.5128 43.0043L25.4672 43.059C25.2391 42.9301 24.9884 42.8465 24.7286 42.8128C24.7385 42.7554 24.7385 42.6968 24.7286 42.6395C24.8363 42.5511 24.9489 42.4689 25.066 42.3933L25.3942 42.1471C25.8699 42.0984 26.342 42.0192 26.8076 41.9101C26.6431 42.1007 26.4491 42.2639 26.2331 42.3933V42.3477ZM35.6067 33.1565C35.6067 33.1565 35.6067 33.0927 35.6067 33.0562V32.965H35.9806C35.849 33.0142 35.7236 33.0785 35.6067 33.1565Z" fill="#4277BB"/>
<path d="M53.9077 41.2809C53.9089 42.2292 53.5656 43.1457 52.9416 43.8598C52.3177 44.5739 51.4556 45.037 50.5157 45.163C49.5758 45.289 48.6221 45.0693 47.8321 44.5447C47.0421 44.0201 46.4695 43.2264 46.221 42.3113C44.5979 41.7459 42.4004 42.2657 40.5676 43.6517C40.112 43.9803 39.6794 44.3398 39.2728 44.7276C38.8352 45.1471 38.361 45.5847 37.9142 45.9859C36.9561 46.841 35.9483 47.6388 34.896 48.3749C32.8154 49.7922 30.5865 50.9785 28.2488 51.9128C25.9196 52.8952 23.4642 53.5459 20.9542 53.8459C20.1725 53.9254 19.3873 53.965 18.6016 53.9645C16.8461 53.9741 15.0975 53.744 13.4042 53.2806C12.1851 52.9457 10.9981 52.5033 9.8572 51.9584C8.67783 51.4354 7.59327 50.7206 6.64756 49.843C5.6317 48.9477 4.89959 47.775 4.54123 46.4692C4.1998 45.2 4.1998 43.8631 4.54123 42.5939C5.27707 40.1702 6.5806 37.957 8.34356 36.1382L8.89066 36.6215C7.29885 38.394 6.14351 40.5142 5.51689 42.8128C5.22164 43.9149 5.22164 45.0753 5.51689 46.1774C5.84329 47.2663 6.47642 48.2382 7.34055 48.9767C8.2247 49.7343 9.22141 50.3496 10.2949 50.8004C11.385 51.2756 12.5137 51.6569 13.6686 51.9402C15.9696 52.4964 18.3552 52.6108 20.6989 52.2776C23.0557 51.9408 25.3542 51.278 27.5285 50.308C29.7201 49.364 31.8023 48.1838 33.738 46.7884C34.6935 46.089 35.6069 45.3339 36.4735 44.527C36.8109 44.217 37.1391 43.8887 37.4583 43.6152L37.7501 43.3234C38.2241 42.8427 38.7331 42.3977 39.2728 41.9921C40.3522 41.1429 41.5932 40.5224 42.9202 40.1685C44.0357 39.8513 45.2102 39.8014 46.3486 40.0226C46.6587 39.1555 47.2654 38.426 48.0615 37.9631C48.8576 37.5001 49.7917 37.3336 50.6987 37.493C51.6056 37.6523 52.4271 38.1273 53.0177 38.8338C53.6082 39.5404 53.93 40.433 53.9259 41.3538L53.9077 41.2809Z" fill="#4277BB"/>
<path d="M37.9949 13.7254C37.9961 13.8567 37.9713 13.9869 37.9218 14.1085C37.8724 14.2302 37.7994 14.3408 37.707 14.4341C37.6146 14.5273 37.5046 14.6014 37.3834 14.6519C37.2623 14.7024 37.1323 14.7284 37.001 14.7284H35.0861V16.7344C35.0861 16.998 34.9814 17.2508 34.795 17.4372C34.6086 17.6236 34.3558 17.7283 34.0922 17.7283C33.9621 17.7283 33.8333 17.7025 33.7133 17.6525C33.5932 17.6024 33.4842 17.5291 33.3927 17.4367C33.3011 17.3442 33.2287 17.2346 33.1798 17.1141C33.1308 16.9935 33.1063 16.8645 33.1075 16.7344V10.7346C33.1075 10.4734 33.2112 10.2229 33.3959 10.0382C33.5806 9.85355 33.8311 9.7498 34.0922 9.7498C34.2223 9.74859 34.3514 9.77318 34.4719 9.82213C34.5924 9.87108 34.7021 9.94342 34.7945 10.035C34.8869 10.1266 34.9602 10.2355 35.0103 10.3556C35.0604 10.4757 35.0861 10.6045 35.0861 10.7346V12.7406H37.001C37.263 12.7406 37.5144 12.844 37.7006 13.0285C37.8867 13.2129 37.9925 13.4634 37.9949 13.7254Z" fill="#4277BB"/>
<path d="M40.7755 10.7439C40.7755 10.195 40.3326 9.75 39.7862 9.75C39.2398 9.75 38.7969 10.195 38.7969 10.7439V16.7346C38.7969 17.2835 39.2398 17.7285 39.7862 17.7285C40.3326 17.7285 40.7755 17.2835 40.7755 16.7346V10.7439Z" fill="#4277BB"/>
</svg>
